<?xml version="1.0" encoding="iso-8859-1"?>
<!-- Generator: Adobe Illustrator 19.0.0, SVG Export Plug-In . SVG Version: 6.00 Build 0)  -->
<svg version="1.1" id="Layer_1" xmlns="http://www.w3.org/2000/svg" xmlns:xlink="http://www.w3.org/1999/xlink" x="0px" y="0px"
	 viewBox="0 0 512.922 512.922" style="enable-background:new 0 0 512.922 512.922;" xml:space="preserve">
<g transform="translate(1 1)">
	<polygon style="fill:#FFFFFF;" points="255.035,8.101 50.235,477.435 255.035,340.901 451.301,468.901 	"/>
	<polygon style="fill:#FFFFFF;" points="502.501,503.035 255.035,8.101 451.301,468.901 255.035,340.901 	"/>
	<polygon style="fill:#FFFFFF;" points="51.941,474.021 255.035,8.101 7.568,503.035 	"/>
	<path d="M502.501,511.568c-1.707,0-3.413-0.853-4.267-1.707l-243.2-158.72l-243.2,158.72c-3.413,1.707-7.68,1.707-10.24-0.853
		c-2.56-2.56-3.413-5.973-1.707-9.387l162.133-324.267c1.707-4.267,6.827-5.973,11.093-3.413c4.267,1.707,5.973,6.827,3.413,11.093
		L29.755,478.288l221.013-145.067c2.56-1.707,6.827-1.707,9.387,0l221.013,145.067L255.035,26.875l-47.787,95.573
		c-1.707,4.267-6.827,5.973-11.093,3.413c-4.267-1.707-5.973-6.827-3.413-11.093L248.208,3.835c2.56-5.973,12.8-5.973,15.36,0
		l247.467,494.933c1.707,3.413,0.853,7.68-1.707,10.24C506.768,510.715,504.208,511.568,502.501,511.568z"/>
	<path d="M192.741,149.755c0-5.12-3.413-8.533-8.533-8.533c-5.12,0-8.533,3.413-8.533,8.533c0,5.12,3.413,8.533,8.533,8.533
		C189.328,158.288,192.741,154.875,192.741,149.755"/>
</g>
<g>
</g>
<g>
</g>
<g>
</g>
<g>
</g>
<g>
</g>
<g>
</g>
<g>
</g>
<g>
</g>
<g>
</g>
<g>
</g>
<g>
</g>
<g>
</g>
<g>
</g>
<g>
</g>
<g>
</g>
</svg>
